%TF.GenerationSoftware,KiCad,Pcbnew,7.0.6*%
%TF.CreationDate,2023-11-17T09:02:37-06:00*%
%TF.ProjectId,ConnectorX,436f6e6e-6563-4746-9f72-582e6b696361,rev?*%
%TF.SameCoordinates,Original*%
%TF.FileFunction,Legend,Bot*%
%TF.FilePolarity,Positive*%
%FSLAX46Y46*%
G04 Gerber Fmt 4.6, Leading zero omitted, Abs format (unit mm)*
G04 Created by KiCad (PCBNEW 7.0.6) date 2023-11-17 09:02:37*
%MOMM*%
%LPD*%
G01*
G04 APERTURE LIST*
%ADD10C,0.150000*%
%ADD11C,0.120000*%
G04 APERTURE END LIST*
D10*
X179374819Y-120396666D02*
X180089104Y-120396666D01*
X180089104Y-120396666D02*
X180231961Y-120349047D01*
X180231961Y-120349047D02*
X180327200Y-120253809D01*
X180327200Y-120253809D02*
X180374819Y-120110952D01*
X180374819Y-120110952D02*
X180374819Y-120015714D01*
X179374819Y-120777619D02*
X179374819Y-121444285D01*
X179374819Y-121444285D02*
X180374819Y-121015714D01*
X125761904Y-94806819D02*
X125190476Y-94806819D01*
X125476190Y-95806819D02*
X125476190Y-94806819D01*
X124857142Y-95806819D02*
X124857142Y-94806819D01*
X124857142Y-94806819D02*
X124476190Y-94806819D01*
X124476190Y-94806819D02*
X124380952Y-94854438D01*
X124380952Y-94854438D02*
X124333333Y-94902057D01*
X124333333Y-94902057D02*
X124285714Y-94997295D01*
X124285714Y-94997295D02*
X124285714Y-95140152D01*
X124285714Y-95140152D02*
X124333333Y-95235390D01*
X124333333Y-95235390D02*
X124380952Y-95283009D01*
X124380952Y-95283009D02*
X124476190Y-95330628D01*
X124476190Y-95330628D02*
X124857142Y-95330628D01*
X123952380Y-94806819D02*
X123333333Y-94806819D01*
X123333333Y-94806819D02*
X123666666Y-95187771D01*
X123666666Y-95187771D02*
X123523809Y-95187771D01*
X123523809Y-95187771D02*
X123428571Y-95235390D01*
X123428571Y-95235390D02*
X123380952Y-95283009D01*
X123380952Y-95283009D02*
X123333333Y-95378247D01*
X123333333Y-95378247D02*
X123333333Y-95616342D01*
X123333333Y-95616342D02*
X123380952Y-95711580D01*
X123380952Y-95711580D02*
X123428571Y-95759200D01*
X123428571Y-95759200D02*
X123523809Y-95806819D01*
X123523809Y-95806819D02*
X123809523Y-95806819D01*
X123809523Y-95806819D02*
X123904761Y-95759200D01*
X123904761Y-95759200D02*
X123952380Y-95711580D01*
X121261904Y-94806819D02*
X120690476Y-94806819D01*
X120976190Y-95806819D02*
X120976190Y-94806819D01*
X120357142Y-95806819D02*
X120357142Y-94806819D01*
X120357142Y-94806819D02*
X119976190Y-94806819D01*
X119976190Y-94806819D02*
X119880952Y-94854438D01*
X119880952Y-94854438D02*
X119833333Y-94902057D01*
X119833333Y-94902057D02*
X119785714Y-94997295D01*
X119785714Y-94997295D02*
X119785714Y-95140152D01*
X119785714Y-95140152D02*
X119833333Y-95235390D01*
X119833333Y-95235390D02*
X119880952Y-95283009D01*
X119880952Y-95283009D02*
X119976190Y-95330628D01*
X119976190Y-95330628D02*
X120357142Y-95330628D01*
X119404761Y-94902057D02*
X119357142Y-94854438D01*
X119357142Y-94854438D02*
X119261904Y-94806819D01*
X119261904Y-94806819D02*
X119023809Y-94806819D01*
X119023809Y-94806819D02*
X118928571Y-94854438D01*
X118928571Y-94854438D02*
X118880952Y-94902057D01*
X118880952Y-94902057D02*
X118833333Y-94997295D01*
X118833333Y-94997295D02*
X118833333Y-95092533D01*
X118833333Y-95092533D02*
X118880952Y-95235390D01*
X118880952Y-95235390D02*
X119452380Y-95806819D01*
X119452380Y-95806819D02*
X118833333Y-95806819D01*
D11*
%TO.C,J7*%
X135180000Y-123330000D02*
X135180000Y-118130000D01*
X178480000Y-123330000D02*
X135180000Y-123330000D01*
X178480000Y-123330000D02*
X178480000Y-120730000D01*
X175880000Y-120730000D02*
X175880000Y-118130000D01*
X178480000Y-120730000D02*
X175880000Y-120730000D01*
X178480000Y-119460000D02*
X178480000Y-118130000D01*
X175880000Y-118130000D02*
X135180000Y-118130000D01*
X178480000Y-118130000D02*
X177150000Y-118130000D01*
%TO.C,TP3*%
X125950000Y-97500000D02*
G75*
G03*
X125950000Y-97500000I-1450000J0D01*
G01*
%TO.C,TP2*%
X121450000Y-97500000D02*
G75*
G03*
X121450000Y-97500000I-1450000J0D01*
G01*
%TD*%
M02*
