M48
; DRILL file {KiCad 7.0.6} date Fri Nov 17 09:02:48 2023
; FORMAT={-:-/ absolute / inch / decimal}
; #@! TF.CreationDate,2023-11-17T09:02:48-06:00
; #@! TF.GenerationSoftware,Kicad,Pcbnew,7.0.6
; #@! TF.FileFunction,Plated,1,2,PTH
FMAT,2
INCH
; #@! TA.AperFunction,Plated,PTH,ViaDrill
T1C0.0157
; #@! TA.AperFunction,Plated,PTH,ComponentDrill
T2C0.0197
; #@! TA.AperFunction,Plated,PTH,ComponentDrill
T3C0.0394
; #@! TA.AperFunction,Plated,PTH,ComponentDrill
T4C0.0669
; #@! TA.AperFunction,Plated,PTH,ComponentDrill
T5C0.1260
%
G90
G05
T1
X5.1614Y-2.685
X5.189Y-4.7717
X5.248Y-3.8504
X5.3346Y-4.1575
X5.3583Y-3.9921
X5.4094Y-4.6299
X5.5354Y-4.3071
X5.622Y-2.748
X5.6535Y-2.6614
X5.7047Y-2.622
X5.7205Y-2.689
X6.0Y-3.8
X6.0866Y-3.563
X6.9252Y-3.185
X6.9646Y-3.9173
T2
X4.9673Y-5.1665
X4.995Y-5.0997
X4.995Y-5.2333
X5.0618Y-5.072
X5.0618Y-5.261
X5.1024Y-2.0256
X5.1286Y-5.0997
X5.1286Y-5.2333
X5.13Y-1.9588
X5.13Y-2.0924
X5.1563Y-5.1665
X5.1969Y-1.9311
X5.1969Y-2.1201
X5.2637Y-1.9588
X5.2637Y-2.0924
X5.2913Y-2.0256
X7.0571Y-2.0256
X7.0848Y-1.9588
X7.0848Y-2.0924
X7.1516Y-1.9311
X7.1516Y-2.1201
X7.1969Y-5.1665
X7.2184Y-1.9588
X7.2184Y-2.0924
X7.2245Y-5.0997
X7.2245Y-5.2333
X7.2461Y-2.0256
X7.2913Y-5.072
X7.2913Y-5.261
X7.3582Y-5.0997
X7.3582Y-5.2333
X7.3858Y-5.1665
T3
X4.7193Y-2.9571
X4.7193Y-3.6571
X4.7785Y-4.8425
X4.7785Y-4.9425
X4.7785Y-5.0425
X4.7825Y-4.0157
X4.7825Y-4.1157
X4.7825Y-4.2157
X4.7864Y-4.427
X4.7864Y-4.527
X4.7864Y-4.627
X4.8193Y-2.9571
X4.8193Y-3.6571
X4.9193Y-2.9571
X4.9193Y-3.6571
X5.0193Y-2.9571
X5.0193Y-3.6571
X5.1193Y-2.9571
X5.1193Y-3.6571
X5.2193Y-2.9571
X5.2193Y-3.6571
X5.3193Y-2.9571
X5.3193Y-3.6571
X5.3744Y-4.7031
X5.3744Y-4.8031
X5.3756Y-5.0679
X5.3756Y-5.1679
X5.4193Y-2.9571
X5.4193Y-3.6571
X5.4744Y-4.7031
X5.4744Y-4.8031
X5.4756Y-5.0679
X5.4756Y-5.1679
X5.5193Y-2.9571
X5.5193Y-3.6571
X5.5744Y-4.7031
X5.5744Y-4.8031
X5.5756Y-5.0679
X5.5756Y-5.1679
X5.6193Y-2.9571
X5.6193Y-3.6571
X5.6744Y-4.7031
X5.6744Y-4.8031
X5.6756Y-5.0679
X5.6756Y-5.1679
X5.7193Y-2.9571
X5.7193Y-3.6571
X5.7744Y-4.7031
X5.7744Y-4.8031
X5.7756Y-5.0679
X5.7756Y-5.1679
X5.8193Y-2.9571
X5.8193Y-3.6571
X5.8744Y-4.7031
X5.8744Y-4.8031
X5.8756Y-5.0679
X5.8756Y-5.1679
X5.9193Y-2.9571
X5.9193Y-3.6571
X5.9744Y-4.7031
X5.9744Y-4.8031
X5.9756Y-5.0679
X5.9756Y-5.1679
X6.0193Y-2.9571
X6.0193Y-3.6571
X6.0744Y-4.7031
X6.0744Y-4.8031
X6.0756Y-5.0679
X6.0756Y-5.1679
X6.0992Y-3.9764
X6.1193Y-2.9571
X6.1193Y-3.6571
X6.1744Y-4.7031
X6.1744Y-4.8031
X6.1756Y-5.0679
X6.1756Y-5.1679
X6.1992Y-3.9764
X6.2087Y-4.1929
X6.2087Y-4.3898
X6.2193Y-2.9571
X6.2193Y-3.6571
X6.2744Y-4.7031
X6.2744Y-4.8031
X6.2756Y-5.0679
X6.2756Y-5.1679
X6.2992Y-3.9764
X6.3087Y-4.1929
X6.3087Y-4.3898
X6.3193Y-2.9571
X6.3193Y-3.6571
X6.3744Y-4.7031
X6.3744Y-4.8031
X6.3756Y-5.0679
X6.3756Y-5.1679
X6.3992Y-3.9764
X6.4087Y-4.1929
X6.4087Y-4.3898
X6.4193Y-2.9571
X6.4193Y-3.6571
X6.4744Y-4.7031
X6.4744Y-4.8031
X6.4756Y-5.0679
X6.4756Y-5.1679
X6.4992Y-3.9764
X6.5087Y-4.1929
X6.5087Y-4.3898
X6.5193Y-2.9571
X6.5193Y-3.6571
X6.5744Y-4.7031
X6.5744Y-4.8031
X6.5756Y-5.0679
X6.5756Y-5.1679
X6.5992Y-3.9764
X6.6193Y-2.9571
X6.6193Y-3.6571
X6.6744Y-4.7031
X6.6744Y-4.8031
X6.6756Y-5.0679
X6.6756Y-5.1679
X6.7744Y-4.7031
X6.7744Y-4.8031
X6.7756Y-5.0679
X6.7756Y-5.1679
X6.8744Y-4.7031
X6.8744Y-4.8031
X6.8756Y-5.0679
X6.8756Y-5.1679
X6.9744Y-4.7031
X6.9744Y-4.8031
X6.9756Y-5.0679
X6.9756Y-5.1679
T4
X7.4104Y-3.2299
X7.4104Y-3.3858
X7.4104Y-3.5417
X7.4104Y-3.9976
X7.4104Y-4.1535
X7.4104Y-4.3094
T5
X5.0618Y-5.1665
X5.1969Y-2.0256
X7.1516Y-2.0256
X7.2913Y-5.1665
T3
G00X7.2835Y-2.5984
M15
G01X7.2835Y-2.5197
M16
G05
G00X7.4409Y-2.374
M15
G01X7.3622Y-2.374
M16
G05
G00X7.5197Y-2.5984
M15
G01X7.5197Y-2.5197
M16
G05
T0
M30
