%TF.GenerationSoftware,KiCad,Pcbnew,7.0.6*%
%TF.CreationDate,2023-11-17T09:02:37-06:00*%
%TF.ProjectId,ConnectorX,436f6e6e-6563-4746-9f72-582e6b696361,rev?*%
%TF.SameCoordinates,Original*%
%TF.FileFunction,Paste,Top*%
%TF.FilePolarity,Positive*%
%FSLAX46Y46*%
G04 Gerber Fmt 4.6, Leading zero omitted, Abs format (unit mm)*
G04 Created by KiCad (PCBNEW 7.0.6) date 2023-11-17 09:02:37*
%MOMM*%
%LPD*%
G01*
G04 APERTURE LIST*
G04 Aperture macros list*
%AMRoundRect*
0 Rectangle with rounded corners*
0 $1 Rounding radius*
0 $2 $3 $4 $5 $6 $7 $8 $9 X,Y pos of 4 corners*
0 Add a 4 corners polygon primitive as box body*
4,1,4,$2,$3,$4,$5,$6,$7,$8,$9,$2,$3,0*
0 Add four circle primitives for the rounded corners*
1,1,$1+$1,$2,$3*
1,1,$1+$1,$4,$5*
1,1,$1+$1,$6,$7*
1,1,$1+$1,$8,$9*
0 Add four rect primitives between the rounded corners*
20,1,$1+$1,$2,$3,$4,$5,0*
20,1,$1+$1,$4,$5,$6,$7,0*
20,1,$1+$1,$6,$7,$8,$9,0*
20,1,$1+$1,$8,$9,$2,$3,0*%
G04 Aperture macros list end*
%ADD10RoundRect,0.250000X-0.375000X-0.625000X0.375000X-0.625000X0.375000X0.625000X-0.375000X0.625000X0*%
%ADD11RoundRect,0.250000X1.000000X0.650000X-1.000000X0.650000X-1.000000X-0.650000X1.000000X-0.650000X0*%
%ADD12RoundRect,0.200000X-0.200000X-0.275000X0.200000X-0.275000X0.200000X0.275000X-0.200000X0.275000X0*%
%ADD13R,1.550000X1.300000*%
%ADD14RoundRect,0.200000X0.200000X0.275000X-0.200000X0.275000X-0.200000X-0.275000X0.200000X-0.275000X0*%
%ADD15RoundRect,0.250000X-0.850000X-0.350000X0.850000X-0.350000X0.850000X0.350000X-0.850000X0.350000X0*%
%ADD16RoundRect,0.250000X-1.275000X-1.125000X1.275000X-1.125000X1.275000X1.125000X-1.275000X1.125000X0*%
%ADD17R,0.900000X1.500000*%
%ADD18R,1.500000X2.000000*%
%ADD19R,3.800000X2.000000*%
%ADD20RoundRect,0.225000X-0.225000X-0.250000X0.225000X-0.250000X0.225000X0.250000X-0.225000X0.250000X0*%
%ADD21RoundRect,0.250000X0.375000X0.625000X-0.375000X0.625000X-0.375000X-0.625000X0.375000X-0.625000X0*%
%ADD22RoundRect,0.225000X0.225000X0.250000X-0.225000X0.250000X-0.225000X-0.250000X0.225000X-0.250000X0*%
%ADD23RoundRect,0.243750X-0.243750X-0.456250X0.243750X-0.456250X0.243750X0.456250X-0.243750X0.456250X0*%
%ADD24R,1.120000X2.160000*%
%ADD25RoundRect,0.150000X-0.150000X0.587500X-0.150000X-0.587500X0.150000X-0.587500X0.150000X0.587500X0*%
G04 APERTURE END LIST*
D10*
%TO.C,D2*%
X142100000Y-113000000D03*
X144900000Y-113000000D03*
%TD*%
D11*
%TO.C,D8*%
X181500000Y-112500000D03*
X177500000Y-112500000D03*
%TD*%
D12*
%TO.C,R3*%
X137675000Y-104000000D03*
X139325000Y-104000000D03*
%TD*%
D13*
%TO.C,SW1*%
X134520000Y-61250000D03*
X142480000Y-61250000D03*
X134520000Y-65750000D03*
X142480000Y-65750000D03*
%TD*%
D14*
%TO.C,R2*%
X139325000Y-108500000D03*
X137675000Y-108500000D03*
%TD*%
D10*
%TO.C,D3*%
X142200000Y-108500000D03*
X145000000Y-108500000D03*
%TD*%
D15*
%TO.C,D1*%
X170960000Y-58720000D03*
D16*
X175585000Y-59475000D03*
X175585000Y-62525000D03*
X178935000Y-59475000D03*
X178935000Y-62525000D03*
D15*
X170960000Y-63280000D03*
%TD*%
D11*
%TO.C,D7*%
X181000000Y-93500000D03*
X177000000Y-93500000D03*
%TD*%
D17*
%TO.C,D6*%
X177700000Y-107900000D03*
X181000000Y-107900000D03*
X181000000Y-103000000D03*
X177700000Y-103000000D03*
%TD*%
D13*
%TO.C,SW2*%
X120020000Y-61250000D03*
X127980000Y-61250000D03*
X120020000Y-65750000D03*
X127980000Y-65750000D03*
%TD*%
D14*
%TO.C,R4*%
X124325000Y-69500000D03*
X122675000Y-69500000D03*
%TD*%
D17*
%TO.C,D5*%
X177350000Y-88450000D03*
X180650000Y-88450000D03*
X180650000Y-83550000D03*
X177350000Y-83550000D03*
%TD*%
D18*
%TO.C,U1*%
X160700000Y-60150000D03*
X163000000Y-60150000D03*
D19*
X163000000Y-53850000D03*
D18*
X165300000Y-60150000D03*
%TD*%
D20*
%TO.C,C3*%
X178225000Y-81000000D03*
X179775000Y-81000000D03*
%TD*%
D21*
%TO.C,D4*%
X144900000Y-104000000D03*
X142100000Y-104000000D03*
%TD*%
D22*
%TO.C,C2*%
X161775000Y-64085000D03*
X160225000Y-64085000D03*
%TD*%
D23*
%TO.C,D9*%
X127562500Y-69500000D03*
X129437500Y-69500000D03*
%TD*%
D14*
%TO.C,R1*%
X139325000Y-113000000D03*
X137675000Y-113000000D03*
%TD*%
D24*
%TO.C,SW3*%
X148960000Y-66865000D03*
X151500000Y-66865000D03*
X154040000Y-66865000D03*
X154040000Y-60135000D03*
X151500000Y-60135000D03*
X148960000Y-60135000D03*
%TD*%
D22*
%TO.C,C1*%
X165775000Y-64000000D03*
X164225000Y-64000000D03*
%TD*%
D25*
%TO.C,Q1*%
X134950000Y-100062500D03*
X133050000Y-100062500D03*
X134000000Y-101937500D03*
%TD*%
D20*
%TO.C,C4*%
X178725000Y-100500000D03*
X180275000Y-100500000D03*
%TD*%
M02*
